<svg id="Capa_1" enable-background="new 0 0 512 512" height="512" viewBox="0 0 512 512" width="512" xmlns="http://www.w3.org/2000/svg"><g><g><path d="m488.468 95.677h-464.936c-8.854 0-16.032 7.178-16.032 16.032v288.581c0 8.854 7.178 16.032 16.032 16.032h464.935c8.854 0 16.032-7.178 16.032-16.032v-288.58c.001-8.855-7.177-16.033-16.031-16.033z" fill="#5055a0"/><path d="m31.548 352.194v-256.517h-8.016c-8.854 0-16.032 7.178-16.032 16.032v288.581c0 8.854 7.179 16.032 16.032 16.032h464.935c8.854 0 16.032-7.178 16.032-16.032v-8.016h-432.87c-22.1 0-40.081-17.98-40.081-40.08z" fill="#3f3f8f"/></g><g><path d="m488.468 88.178h-400.809c-4.142 0-7.5 3.357-7.5 7.5 0 4.142 3.358 7.5 7.5 7.5h400.809c4.705 0 8.532 3.827 8.532 8.532v288.58c0 4.705-3.828 8.532-8.532 8.532h-464.936c-4.705 0-8.532-3.827-8.532-8.532v-288.58c0-4.705 3.828-8.532 8.532-8.532h32.066c4.142 0 7.5-3.358 7.5-7.5 0-4.143-3.358-7.5-7.5-7.5h-32.066c-12.975 0-23.532 10.556-23.532 23.532v288.58c0 12.976 10.557 23.532 23.532 23.532h464.936c12.976 0 23.532-10.556 23.532-23.532v-288.58c0-12.976-10.557-23.532-23.532-23.532z"/><g fill="#ffe07d"><path d="m144.291 245.677-3.531-1.147c-3.94-1.279-8.17.876-9.45 4.815-.25.77-.369 1.55-.369 2.318-.001 3.162 2.014 6.103 5.185 7.133l3.531 1.147-2.182 3.003c-.968 1.332-1.434 2.876-1.433 4.405 0 2.318 1.073 4.604 3.092 6.071 3.351 2.435 8.042 1.691 10.476-1.659l2.183-3.004 2.182 3.003c1.468 2.02 3.755 3.092 6.074 3.092 1.528 0 3.071-.466 4.402-1.433 2.019-1.467 3.091-3.753 3.092-6.071 0-1.529-.465-3.073-1.433-4.405l-2.183-3.003 3.531-1.147c3.17-1.03 5.185-3.971 5.184-7.133 0-.768-.119-1.548-.369-2.317-1.28-3.939-5.511-6.095-9.451-4.815l-3.53 1.146v-3.712c0-4.143-3.358-7.5-7.5-7.5s-7.5 3.357-7.5 7.5v3.713z"/><path d="m206.233 145.953c-4.142 0-7.5 3.358-7.5 7.5v3.713l-3.531-1.147c-3.939-1.28-8.17.876-9.45 4.815-.25.77-.369 1.55-.369 2.317-.001 3.162 2.014 6.103 5.185 7.133l3.531 1.147-2.182 3.003c-.968 1.332-1.434 2.875-1.433 4.405 0 2.318 1.073 4.604 3.092 6.071 3.35 2.435 8.041 1.691 10.476-1.659l2.183-3.004 2.182 3.004c1.468 2.02 3.755 3.092 6.074 3.092 1.528 0 3.071-.465 4.402-1.433 2.019-1.467 3.091-3.753 3.092-6.071 0-1.529-.465-3.073-1.433-4.404l-2.183-3.004 3.531-1.147c3.17-1.03 5.185-3.971 5.184-7.133 0-.768-.119-1.548-.369-2.317-1.28-3.939-5.51-6.096-9.451-4.815l-3.53 1.147v-3.712c-.001-4.143-3.359-7.501-7.501-7.501z"/><path d="m227.083 342.846c0-.768-.119-1.548-.369-2.317-1.28-3.939-5.51-6.095-9.451-4.815l-3.53 1.147v-3.712c0-4.142-3.358-7.5-7.5-7.5s-7.5 3.358-7.5 7.5v3.712l-3.531-1.147c-3.939-1.28-8.17.876-9.45 4.815-.25.77-.369 1.55-.369 2.318-.001 3.162 2.014 6.103 5.185 7.133l3.531 1.147-2.182 3.003c-.968 1.332-1.434 2.875-1.433 4.405 0 2.318 1.073 4.604 3.092 6.071 3.35 2.435 8.041 1.691 10.476-1.659l2.183-3.003 2.182 3.003c1.468 2.021 3.755 3.093 6.074 3.093 1.528 0 3.071-.466 4.402-1.433 2.019-1.467 3.091-3.752 3.092-6.071 0-1.53-.465-3.073-1.433-4.405l-2.183-3.003 3.531-1.147c3.169-1.032 5.184-3.973 5.183-7.135z"/><path d="m166.152 182.694c-4.142 0-7.5 3.358-7.5 7.5v3.712l-3.53-1.147c-3.941-1.281-8.17.876-9.451 4.815-.25.77-.369 1.55-.369 2.317-.001 3.162 2.014 6.104 5.184 7.133l3.531 1.147-2.182 3.004c-.967 1.332-1.433 2.875-1.433 4.404.001 2.318 1.073 4.604 3.092 6.071 3.351 2.436 8.041 1.691 10.476-1.659l2.182-3.003 2.183 3.003c1.467 2.021 3.754 3.093 6.074 3.092 1.528 0 3.071-.466 4.402-1.433 2.019-1.467 3.091-3.753 3.092-6.071 0-1.529-.465-3.073-1.433-4.404l-2.182-3.004 3.531-1.146c3.17-1.03 5.186-3.971 5.185-7.133 0-.768-.119-1.548-.369-2.318-1.28-3.939-5.514-6.095-9.45-4.815l-3.531 1.147v-3.712c-.002-4.142-3.36-7.5-7.502-7.5z"/><path d="m187.003 305.438c0-.768-.119-1.548-.369-2.317-1.28-3.939-5.514-6.095-9.45-4.815l-3.531 1.147v-3.713c0-4.142-3.358-7.5-7.5-7.5s-7.5 3.358-7.5 7.5v3.713l-3.53-1.147c-3.941-1.279-8.17.876-9.451 4.815-.25.77-.369 1.55-.369 2.317-.001 3.162 2.014 6.103 5.184 7.133l3.531 1.147-2.182 3.003c-.967 1.332-1.433 2.875-1.433 4.405.001 2.318 1.073 4.604 3.092 6.071 3.351 2.436 8.041 1.691 10.476-1.659l2.182-3.003 2.183 3.003c1.467 2.02 3.754 3.092 6.074 3.092 1.528 0 3.071-.466 4.402-1.433 2.019-1.467 3.091-3.753 3.092-6.071 0-1.529-.465-3.073-1.433-4.405l-2.182-3.003 3.531-1.147c3.169-1.03 5.184-3.971 5.183-7.133z"/><path d="m360.209 234.465c-4.142 0-7.5 3.357-7.5 7.5v3.712l-3.53-1.146c-3.941-1.28-8.171.876-9.451 4.815-.25.769-.369 1.55-.369 2.317-.001 3.162 2.014 6.103 5.184 7.133l3.531 1.147-2.183 3.003c-.967 1.332-1.433 2.875-1.433 4.405.001 2.318 1.073 4.604 3.092 6.071 1.331.967 2.874 1.433 4.402 1.433 2.319 0 4.606-1.072 6.074-3.092l2.182-3.003 2.183 3.004c2.435 3.351 7.125 4.094 10.476 1.659 2.02-1.467 3.092-3.753 3.092-6.071 0-1.529-.465-3.073-1.433-4.405l-2.182-3.003 3.531-1.147c3.17-1.03 5.186-3.971 5.185-7.133 0-.768-.119-1.548-.369-2.318-1.28-3.939-5.515-6.094-9.45-4.815l-3.531 1.147v-3.712c-.001-4.144-3.358-7.501-7.501-7.501z"/><path d="m256 130.255c-4.142 0-7.5 3.358-7.5 7.5v3.713l-3.531-1.147c-3.941-1.281-8.17.876-9.45 4.815-.25.77-.369 1.55-.369 2.317-.001 3.162 2.014 6.103 5.185 7.133l3.531 1.147-2.182 3.003c-.968 1.332-1.434 2.875-1.433 4.405 0 2.318 1.073 4.604 3.092 6.071 3.351 2.435 8.041 1.691 10.476-1.659l2.181-3.003 2.183 3.004c1.467 2.02 3.754 3.092 6.074 3.092 1.528 0 3.071-.466 4.402-1.433 2.02-1.467 3.092-3.753 3.092-6.071 0-1.529-.465-3.073-1.433-4.405l-2.182-3.003 3.531-1.147c3.17-1.03 5.186-3.971 5.185-7.133 0-.768-.119-1.548-.369-2.317-1.28-3.94-5.513-6.097-9.45-4.815l-3.531 1.147v-3.713c-.002-4.143-3.36-7.501-7.502-7.501z"/><path d="m305.767 145.953c-4.142 0-7.5 3.358-7.5 7.5v3.712l-3.53-1.147c-3.942-1.28-8.171.876-9.451 4.815-.25.769-.369 1.55-.369 2.317-.001 3.162 2.014 6.103 5.184 7.133l3.531 1.147-2.183 3.004c-.967 1.332-1.433 2.875-1.433 4.404.001 2.318 1.073 4.604 3.092 6.071 1.331.967 2.874 1.433 4.402 1.433 2.319 0 4.606-1.072 6.074-3.092l2.182-3.004 2.183 3.004c2.435 3.352 7.125 4.094 10.476 1.659 2.02-1.467 3.092-3.753 3.092-6.071 0-1.529-.465-3.073-1.433-4.405l-2.182-3.003 3.531-1.147c3.17-1.03 5.186-3.971 5.185-7.133 0-.768-.119-1.548-.369-2.317-1.28-3.939-5.513-6.096-9.45-4.815l-3.531 1.147v-3.713c-.001-4.141-3.359-7.499-7.501-7.499z"/><path d="m345.848 182.694c-4.142 0-7.5 3.358-7.5 7.5v3.712l-3.531-1.147c-3.941-1.279-8.17.876-9.45 4.815-.25.77-.369 1.55-.369 2.318-.001 3.162 2.014 6.103 5.185 7.133l3.531 1.146-2.182 3.004c-.968 1.332-1.434 2.875-1.433 4.404 0 2.318 1.073 4.604 3.092 6.071 1.332.968 2.874 1.433 4.402 1.433 2.319 0 4.606-1.072 6.074-3.092l2.183-3.003 2.182 3.003c2.436 3.352 7.125 4.095 10.476 1.659 2.019-1.467 3.091-3.753 3.092-6.071 0-1.529-.465-3.072-1.433-4.404l-2.182-3.004 3.531-1.147c3.17-1.03 5.185-3.971 5.184-7.133 0-.768-.119-1.548-.369-2.317-1.28-3.939-5.512-6.095-9.451-4.815l-3.53 1.147v-3.712c-.002-4.142-3.36-7.5-7.502-7.5z"/><path d="m240.334 363.006 3.531 1.146-2.182 3.004c-.968 1.332-1.434 2.875-1.433 4.404 0 2.318 1.073 4.604 3.092 6.071 3.352 2.435 8.042 1.691 10.476-1.659l2.183-3.003 2.183 3.003c1.467 2.021 3.754 3.093 6.074 3.092 1.528 0 3.071-.466 4.402-1.433 2.019-1.467 3.091-3.753 3.092-6.071 0-1.529-.465-3.073-1.433-4.404l-2.182-3.004 3.531-1.146c3.17-1.03 5.186-3.971 5.185-7.133 0-.768-.119-1.548-.369-2.318-1.28-3.939-5.513-6.095-9.45-4.815l-3.531 1.147v-3.712c0-4.142-3.358-7.5-7.5-7.5s-7.5 3.358-7.5 7.5v3.712l-3.531-1.147c-3.941-1.279-8.17.877-9.45 4.815-.25.77-.369 1.55-.369 2.318-.005 3.162 2.011 6.103 5.181 7.133z"/><path d="m290.101 349.979 3.531 1.147-2.183 3.003c-.967 1.332-1.433 2.875-1.433 4.405.001 2.318 1.073 4.604 3.092 6.071 1.331.967 2.874 1.433 4.402 1.433 2.319 0 4.606-1.073 6.074-3.093l2.182-3.003 2.183 3.003c2.435 3.351 7.125 4.094 10.476 1.659 2.02-1.467 3.092-3.753 3.092-6.071 0-1.529-.465-3.073-1.433-4.405l-2.182-3.003 3.531-1.147c3.17-1.03 5.186-3.971 5.185-7.133 0-.768-.119-1.548-.369-2.318-1.28-3.939-5.513-6.095-9.45-4.815l-3.531 1.147v-3.712c0-4.142-3.358-7.5-7.5-7.5s-7.5 3.358-7.5 7.5v3.712l-3.53-1.147c-3.942-1.28-8.171.876-9.451 4.815-.25.77-.369 1.55-.369 2.317-.002 3.164 2.013 6.105 5.183 7.135z"/><path d="m366.698 305.438c0-.768-.119-1.548-.369-2.317-1.28-3.939-5.512-6.095-9.451-4.815l-3.53 1.147v-3.713c0-4.142-3.358-7.5-7.5-7.5s-7.5 3.358-7.5 7.5v3.713l-3.531-1.147c-3.941-1.28-8.17.876-9.45 4.815-.25.77-.369 1.55-.369 2.317-.001 3.162 2.014 6.104 5.185 7.133l3.531 1.147-2.182 3.003c-.968 1.332-1.434 2.875-1.433 4.405 0 2.318 1.073 4.604 3.092 6.071 1.332.967 2.874 1.433 4.402 1.433 2.319 0 4.606-1.072 6.074-3.092l2.183-3.003 2.182 3.003c2.436 3.351 7.125 4.094 10.476 1.659 2.019-1.467 3.091-3.753 3.092-6.071 0-1.529-.465-3.073-1.433-4.405l-2.182-3.003 3.531-1.147c3.168-1.03 5.183-3.971 5.182-7.133z"/></g></g></g></svg>