<svg id="Capa_1" enable-background="new 0 0 512 512" height="512" viewBox="0 0 512 512" width="512" xmlns="http://www.w3.org/2000/svg"><g><g><g><path d="m504.5 202.559v-90.849c0-8.855-7.178-16.032-16.032-16.032h-464.936c-8.854 0-16.032 7.178-16.032 16.032v90.849l24.045 21.377h448.907z" fill="#ffc269"/><path d="m31.548 95.677h-8.016c-8.854 0-16.032 7.178-16.032 16.032v90.849l24.044 21.377h.004z" fill="#ffa95f"/><path d="m7.5 309.441v90.849c0 8.855 7.178 16.032 16.032 16.032h464.935c8.854 0 16.032-7.178 16.032-16.032v-90.849l-24.045-21.376h-448.906z" fill="#95cc81"/><path d="m31.548 352.193v-57.003-7.125l-24.048 21.376v90.849c0 8.855 7.179 16.032 16.032 16.032h464.935c8.854 0 16.032-7.178 16.032-16.032v-8.016h-432.87c-22.1 0-40.081-17.98-40.081-40.081z" fill="#7dbd80"/><path d="m7.5 202.559h497v106.882h-497z" fill="#f2f2f6"/><path d="m7.5 202.559h24.048v106.882h-24.048z" fill="#e1e1e6"/></g><circle cx="256" cy="256" fill="#5055a0" r="52.105"/></g><path d="m488.468 88.177h-464.936c-12.975 0-23.532 10.557-23.532 23.533v288.58c0 12.976 10.557 23.532 23.532 23.532h464.936c12.976 0 23.532-10.557 23.532-23.532v-288.58c0-12.976-10.557-23.533-23.532-23.533zm-464.936 15h464.936c4.705 0 8.532 3.827 8.532 8.532v83.349h-425.371c-4.142 0-7.5 3.358-7.5 7.5s3.358 7.5 7.5 7.5h144.398c-12.833 11.181-20.968 27.624-20.968 45.941s8.135 34.76 20.968 45.941h-201.027v-91.882h24.565c4.142 0 7.5-3.358 7.5-7.5s-3.358-7.5-7.5-7.5h-24.565v-83.348c0-4.705 3.828-8.533 8.532-8.533zm239.968 107.504c7.084 1.169 13.622 3.964 19.226 7.987l-19.226 19.225zm-15 27.212-19.226-19.225c5.604-4.023 12.142-6.818 19.226-7.987zm-29.832-8.618 19.225 19.225h-27.212c1.169-7.084 3.964-13.622 7.987-19.225zm19.225 34.225-19.225 19.225c-4.023-5.604-6.818-12.142-7.987-19.225zm10.607 10.606v27.212c-7.084-1.169-13.622-3.964-19.226-7.987zm15 0 19.226 19.225c-5.604 4.023-12.142 6.818-19.226 7.987zm29.832 8.619-19.225-19.225h27.212c-1.169 7.083-3.964 13.621-7.987 19.225zm-19.225-34.225 19.225-19.225c4.023 5.604 6.818 12.142 7.987 19.225zm214.361 160.323h-464.936c-4.705 0-8.532-3.828-8.532-8.532v-83.349h433.39c4.142 0 7.5-3.358 7.5-7.5s-3.358-7.5-7.5-7.5h-152.417c12.833-11.181 20.968-27.624 20.968-45.941s-8.135-34.76-20.968-45.941h201.027v91.882h-16.548c-4.142 0-7.5 3.358-7.5 7.5s3.358 7.5 7.5 7.5h16.548v83.349c0 4.704-3.828 8.532-8.532 8.532z"/></g></svg>