<svg height="512" viewBox="0 0 64 64" width="512" xmlns="http://www.w3.org/2000/svg"><g id="outline"><path d="m61 37h-2v-2h2v-2h-10v-4h-2.279l-2-6h-3.721v-2h-2v2h-2v-2h-2v2h-1.721l-1.932 5.8-2.347-3.133v-2.667h2v-2h-2v-2h2v-2h-2v-2h-2v-2h-2v2h-1.809l-.428 2h-1.763v2h1.334l-1.286 6h-2.048v2h1.62l-.429 2h-2.972l-2 8h-3.219v-2h1a1 1 0 0 0 1-1v-4a1 1 0 0 0 -1-1h-6a1 1 0 0 0 -.707.293l-1.707 1.707h-4.586v2h4v1a1 1 0 0 0 1 1h1v2h-5a1 1 0 0 0 -.707 1.707l6.293 6.293h-1.586a2.642 2.642 0 0 0 -2.375 1.668 2.725 2.725 0 0 0 .668 3.039l2 2a1 1 0 0 0 .707.293h37a1 1 0 0 0 .447-.1l1.835-.918 9.818-.982a1 1 0 0 0 .9-1v-2.586l3.707-3.707a1 1 0 0 0 .293-.707v-4a1 1 0 0 0 -1-1zm-6-2h2v2h-2zm-4 0h2v2h-2zm-14.279-10h8.558l1.333 4h-11.224zm-12.055 2h2.334v-2h-1.906l1.715-8h2.191v4h-2v2h2v3.333l2 2.667h-6.763zm-3.885 4h28.219v6h-18v-4h-8v4h-3.719zm8.219 4v2h-4v-2zm-21-2.586 1.414-1.414h4.586v2h-6zm4 2.586v2h-2v-2zm44 13.1-9.1.91a1 1 0 0 0 -.347.1l-1.789.9h-36.35l-1.707-1.717a.752.752 0 0 1 -.234-.859.668.668 0 0 1 .527-.434h49zm-40-3.1v-2h2v2zm25 0v-2h2v2zm8 0v-2h2v2zm11-3.414-3.414 3.414h-3.586v-4h-6v4h-2v-4h-6v4h-19v-4h-6v4h-2.586l-6-6h54.586z"/><path d="m33 33h2v2h-2z"/><path d="m37 33h2v2h-2z"/><path d="m41 33h2v2h-2z"/><path d="m45 33h2v2h-2z"/><path d="m22 41h2v2h-2z"/><path d="m26 41h2v2h-2z"/></g></svg>