<?xml version="1.0" encoding="iso-8859-1"?>
<!-- Generator: Adobe Illustrator 19.1.0, SVG Export Plug-In . SVG Version: 6.00 Build 0)  -->
<svg version="1.1" id="Capa_1" xmlns="http://www.w3.org/2000/svg" xmlns:xlink="http://www.w3.org/1999/xlink" x="0px" y="0px"
	 viewBox="0 0 477.846 477.846" style="enable-background:new 0 0 477.846 477.846;" xml:space="preserve">
	     <style type="text/css"><![CDATA[
      g {
        stroke: black;
        stroke-width: 15;
        fill: red;
      }
    ]]></style>
<g>
	<g>
		<path d="M377.247,182.336h-50.3c-7.545,0-12.575,5.03-12.575,12.575c0,7.545,5.03,12.575,12.575,12.575h50.3
			c7.545,0,12.575-5.03,12.575-12.575C389.822,187.366,384.792,182.336,377.247,182.336z"/>
		<path d="M475.331,262.815c-2.515-2.515-5.03-5.03-10.06-5.03h-37.725V144.611c0-7.545-5.03-12.575-12.575-12.575h-12.575V94.312
			c0-7.545-5.03-12.575-12.575-12.575h-12.575v-25.15c0-7.545-5.03-12.575-12.575-12.575c-7.545,0-12.575,5.03-12.575,12.575v25.15
			h-37.725c-7.545,0-12.575,5.03-12.575,12.575v37.725h-12.575c-7.545,0-12.575,5.03-12.575,12.575v12.575H163.474H37.725
			c-7.545,0-12.575,5.03-12.575,12.575v50.3v37.725H12.575c-5.03,0-7.545,2.515-10.06,5.03C0,265.33,0,270.36,0,275.39l50.3,150.899
			c2.515,5.03,7.545,7.545,12.575,7.545h352.097c5.03,0,10.06-2.515,12.575-7.545l50.3-150.899
			C477.846,270.36,477.846,265.33,475.331,262.815z M123.234,386.049c-12.575,0-22.635-10.06-22.635-22.635
			c0-12.575,10.06-22.635,22.635-22.635c12.575,0,22.635,10.06,22.635,22.635C145.869,375.99,135.809,386.049,123.234,386.049z
			 M150.899,257.785H50.3v-25.15h100.599V257.785z M150.899,207.486H50.3v-25.15h100.599V207.486z M198.683,386.049
			c-12.575,0-22.635-10.06-22.635-22.635c0-12.575,10.06-22.635,22.635-22.635s22.635,10.06,22.635,22.635
			C221.318,375.99,211.258,386.049,198.683,386.049z M276.648,257.785H176.049v-25.15h100.599V257.785z M276.648,207.486H176.049
			v-25.15h100.599V207.486z M326.947,106.887h50.3v25.15h-50.3V106.887z M402.397,257.785H301.798v-37.725v-50.3v-12.575h12.575
			h75.449h12.575V257.785z"/>
	</g>
</g>
</svg>
